<?xml version="1.0" encoding="UTF-8" standalone="no"?>
<!-- Created with Inkscape (http://www.inkscape.org/) -->

<svg
   xmlns:dc="http://purl.org/dc/elements/1.1/"
   xmlns:cc="http://creativecommons.org/ns#"
   xmlns:rdf="http://www.w3.org/1999/02/22-rdf-syntax-ns#"
   xmlns:svg="http://www.w3.org/2000/svg"
   xmlns="http://www.w3.org/2000/svg"
   xmlns:sodipodi="http://sodipodi.sourceforge.net/DTD/sodipodi-0.dtd"
   xmlns:inkscape="http://www.inkscape.org/namespaces/inkscape"
   width="134.625"
   height="124"
   id="svg2"
   version="1.1"
   inkscape:version="0.48+devel r10518"
   sodipodi:docname="Filmstrip-a.svg">
  <defs
     id="defs4" />
  <sodipodi:namedview
     id="base"
     pagecolor="#ffffff"
     bordercolor="#666666"
     borderopacity="1.0"
     inkscape:pageopacity="0.0"
     inkscape:pageshadow="2"
     inkscape:zoom="3.6139462"
     inkscape:cx="67.3125"
     inkscape:cy="72.911987"
     inkscape:document-units="px"
     inkscape:current-layer="layer1"
     showgrid="false"
     inkscape:window-width="1280"
     inkscape:window-height="744"
     inkscape:window-x="-4"
     inkscape:window-y="-4"
     inkscape:window-maximized="1"
     fit-margin-top="0"
     fit-margin-left="0"
     fit-margin-right="0"
     fit-margin-bottom="0" />
  <metadata
     id="metadata7">
    <rdf:RDF>
      <cc:Work
         rdf:about="">
        <dc:format>image/svg+xml</dc:format>
        <dc:type
           rdf:resource="http://purl.org/dc/dcmitype/StillImage" />
        <dc:title></dc:title>
      </cc:Work>
    </rdf:RDF>
  </metadata>
  <g
     inkscape:label="Layer 1"
     inkscape:groupmode="layer"
     id="layer1"
     transform="translate(0,-928.375)">
    <path
       style="fill:#000000;fill-rule:evenodd;stroke:none"
       d="m 0,928.375 0,124 134.625,0 0,-124 -134.625,0 z m 6.96875,6.34375 2.84375,0 c 0.981496,0 1.75,0.79975 1.75,1.78125 l 0,6.375 c 0,0.9815 -0.768504,1.78125 -1.75,1.78125 l -2.84375,0 c -0.9814961,0 -1.78125,-0.79975 -1.78125,-1.78125 l 0,-6.375 c 0,-0.9815 0.7997539,-1.78125 1.78125,-1.78125 z m 16.84375,0 2.8125,0 c 0.981496,0 1.78125,0.79975 1.78125,1.78125 l 0,6.375 c 0,0.9815 -0.799754,1.78125 -1.78125,1.78125 l -2.8125,0 c -0.981496,0 -1.78125,-0.79975 -1.78125,-1.78125 l 0,-6.375 c 0,-0.9815 0.799754,-1.78125 1.78125,-1.78125 z m 16.8125,0 2.84375,0 c 0.981496,0 1.78125,0.79975 1.78125,1.78125 l 0,6.375 c 0,0.9815 -0.799754,1.78125 -1.78125,1.78125 l -2.84375,0 c -0.981496,0 -1.75,-0.79975 -1.75,-1.78125 l 0,-6.375 c 0,-0.9815 0.768504,-1.78125 1.75,-1.78125 z m 16.84375,0 2.84375,0 c 0.981496,0 1.78125,0.79975 1.78125,1.78125 l 0,6.375 c 0,0.9815 -0.799754,1.78125 -1.78125,1.78125 l -2.84375,0 c -0.981496,0 -1.75,-0.79975 -1.75,-1.78125 l 0,-6.375 c 0,-0.9815 0.768504,-1.78125 1.75,-1.78125 z m 16.84375,0 2.84375,0 c 0.981496,0 1.75,0.79975 1.75,1.78125 l 0,6.375 c 0,0.9815 -0.768504,1.78125 -1.75,1.78125 l -2.84375,0 c -0.981496,0 -1.78125,-0.79975 -1.78125,-1.78125 l 0,-6.375 c 0,-0.9815 0.799754,-1.78125 1.78125,-1.78125 z m 16.84375,0 2.84375,0 c 0.981496,0 1.75,0.79975 1.75,1.78125 l 0,6.375 c 0,0.9815 -0.768504,1.78125 -1.75,1.78125 l -2.84375,0 c -0.981496,0 -1.78125,-0.79975 -1.78125,-1.78125 l 0,-6.375 c 0,-0.9815 0.799754,-1.78125 1.78125,-1.78125 z m 16.84375,0 2.8125,0 c 0.9815,0 1.78125,0.79975 1.78125,1.78125 l 0,6.375 c 0,0.9815 -0.79975,1.78125 -1.78125,1.78125 l -2.8125,0 c -0.9815,0 -1.78125,-0.79975 -1.78125,-1.78125 l 0,-6.375 c 0,-0.9815 0.79975,-1.78125 1.78125,-1.78125 z m 16.8125,0 2.84375,0 c 0.9815,0 1.78125,0.79975 1.78125,1.78125 l 0,6.375 c 0,0.9815 -0.79975,1.78125 -1.78125,1.78125 l -2.84375,0 c -0.9815,0 -1.75,-0.79975 -1.75,-1.78125 l 0,-6.375 c 0,-0.9815 0.7685,-1.78125 1.75,-1.78125 z m -121.28125,13.125 127.5625,0 0,85.03125 -127.5625,0 0,-85.03125 z m 2.875,88.93745 2.84375,0 c 0.981496,0 1.78125,0.7686 1.78125,1.75 l 0,6.375 c 0,0.9815 -0.799754,1.7813 -1.78125,1.7813 l -2.84375,0 c -0.9814961,0 -1.75,-0.7998 -1.75,-1.7813 l 0,-6.375 c 0,-0.9814 0.7685039,-1.75 1.75,-1.75 z m 16.84375,0 2.84375,0 c 0.981496,0 1.78125,0.7686 1.78125,1.75 l 0,6.375 c 0,0.9816 -0.799754,1.7813 -1.78125,1.7813 l -2.84375,0 c -0.981496,0 -1.75,-0.7997 -1.75,-1.7813 l 0,-6.375 c 0,-0.9813 0.768504,-1.75 1.75,-1.75 z m 16.84375,0 2.84375,0 c 0.981496,0 1.78125,0.7686 1.78125,1.75 l 0,6.375 c 0,0.9817 -0.799754,1.7813 -1.78125,1.7813 l -2.84375,0 c -0.981496,0 -1.78125,-0.7996 -1.78125,-1.7813 l 0,-6.375 c 0,-0.9812 0.799754,-1.75 1.78125,-1.75 z m 16.84375,0 2.84375,0 c 0.981496,0 1.75,0.7686 1.75,1.75 l 0,6.375 c 0,0.9818 -0.768504,1.7813 -1.75,1.7813 l -2.84375,0 c -0.981496,0 -1.78125,-0.7996 -1.78125,-1.7813 l 0,-6.375 c 0,-0.9811 0.799754,-1.75 1.78125,-1.75 z m 16.84375,0 2.8125,0 c 0.981496,0 1.78125,0.7686 1.78125,1.75 l 0,6.375 c 0,0.9819 -0.799754,1.7813 -1.78125,1.7813 l -2.8125,0 c -0.981496,0 -1.78125,-0.7996 -1.78125,-1.7813 l 0,-6.375 c 0,-0.981 0.799754,-1.75 1.78125,-1.75 z m 16.84375,0 2.8125,0 c 0.981496,0 1.78125,0.7686 1.78125,1.75 l 0,6.375 c 0,0.9819 -0.799754,1.7813 -1.78125,1.7813 l -2.8125,0 c -0.981496,0 -1.78125,-0.7996 -1.78125,-1.7813 l 0,-6.375 c 0,-0.9809 0.799754,-1.75 1.78125,-1.75 z m 16.8125,0 2.84375,0 c 0.9815,0 1.78125,0.7686 1.78125,1.75 l 0,6.375 c 0,0.9819 -0.79975,1.7813 -1.78125,1.7813 l -2.84375,0 c -0.9815,0 -1.75,-0.7996 -1.75,-1.7813 l 0,-6.375 c 0,-0.9808 0.7685,-1.75 1.75,-1.75 z m 16.84375,0 2.84375,0 c 0.9815,0 1.78125,0.7686 1.78125,1.75 l 0,6.375 c 0,0.9819 -0.79975,1.7813 -1.78125,1.7813 l -2.84375,0 c -0.9815,0 -1.78125,-0.7996 -1.78125,-1.7813 l 0,-6.375 c 0,-0.9807 0.79975,-1.75 1.78125,-1.75 z"
       id="rect10"
       inkscape:connector-curvature="0" />
    <rect
       style="fill:#ed9c00;fill-opacity:1;fill-rule:evenodd;stroke:none"
       id="rect28"
       width="6.3779526"
       height="9.9212599"
       x="81.118912"
       y="906.55103"
       rx="1.7716535"
       ry="1.7716535"
       inkscape:tile-cx="6.5192366"
       inkscape:tile-cy="937.16998"
       inkscape:tile-w="6.3779526"
       inkscape:tile-h="9.9212599"
       inkscape:tile-x0="3.3302603"
       inkscape:tile-y0="932.20935" />
    <text
       xml:space="preserve"
       style="font-size:9px;font-style:normal;font-variant:normal;font-weight:normal;font-stretch:normal;line-height:125%;letter-spacing:0px;word-spacing:0px;fill:#ed9c00;fill-opacity:1;stroke:none;font-family:Monospace;-inkscape-font-specification:Monospace"
       x="64.941483"
       y="934.95178"
       id="text3550"
       sodipodi:linespacing="125%"><tspan
         sodipodi:role="line"
         id="tspan3552"
         x="64.941483"
         y="934.95178">1</tspan></text>
    <text
       sodipodi:linespacing="125%"
       id="text3554"
       y="1051.4449"
       x="63.557953"
       style="font-size:9px;font-style:normal;font-variant:normal;font-weight:normal;font-stretch:normal;line-height:125%;letter-spacing:0px;word-spacing:0px;fill:#ed9c00;fill-opacity:1;stroke:none;font-family:Monospace;-inkscape-font-specification:Monospace"
       xml:space="preserve"><tspan
         y="1051.4449"
         x="63.557953"
         id="tspan3556"
         sodipodi:role="line">1</tspan></text>
  </g>
</svg>
