<?xml version="1.0" encoding="UTF-8" standalone="no"?>
<svg
   xmlns:dc="http://purl.org/dc/elements/1.1/"
   xmlns:cc="http://creativecommons.org/ns#"
   xmlns:rdf="http://www.w3.org/1999/02/22-rdf-syntax-ns#"
   xmlns:svg="http://www.w3.org/2000/svg"
   xmlns="http://www.w3.org/2000/svg"
   xmlns:xlink="http://www.w3.org/1999/xlink"
   xmlns:sodipodi="http://sodipodi.sourceforge.net/DTD/sodipodi-0.dtd"
   xmlns:inkscape="http://www.inkscape.org/namespaces/inkscape"
   version="1.1"
   width="128px"
   height="128px"
   id="RSSicon"
   viewBox="0 0 256 256"
   inkscape:version="0.48.1 r9760"
   sodipodi:docname="map.svg">
  <metadata
     id="metadata4374">
    <rdf:RDF>
      <cc:Work
         rdf:about="">
        <dc:format>image/svg+xml</dc:format>
        <dc:type
           rdf:resource="http://purl.org/dc/dcmitype/StillImage" />
        <dc:title />
      </cc:Work>
    </rdf:RDF>
  </metadata>
  <sodipodi:namedview
     pagecolor="#ffffff"
     bordercolor="#666666"
     borderopacity="1"
     objecttolerance="10"
     gridtolerance="10"
     guidetolerance="10"
     inkscape:pageopacity="0"
     inkscape:pageshadow="2"
     inkscape:window-width="1024"
     inkscape:window-height="553"
     id="namedview4372"
     showgrid="false"
     inkscape:zoom="2.921875"
     inkscape:cx="64"
     inkscape:cy="64"
     inkscape:window-x="-3"
     inkscape:window-y="-3"
     inkscape:window-maximized="1"
     inkscape:current-layer="layer1" />
  <defs
     id="defs4343">
    <linearGradient
       x1="0.085"
       y1="0.085"
       x2="0.915"
       y2="0.915"
       id="RSSg">
      <stop
         offset="0"
         stop-color="#E3702D"
         id="stop4346"
         style="stop-color:#3ea441;stop-opacity:1;" />
      <stop
         offset="0.5"
         stop-color="#FB9E3A"
         id="stop4352"
         style="stop-color:#6dc76f;stop-opacity:1;" />
      <stop
         offset="1"
         stop-color="#D95B29"
         id="stop4358"
         style="stop-color:#3fa342;stop-opacity:1;" />
    </linearGradient>
    <clipPath
       clipPathUnits="userSpaceOnUse"
       id="clipPath5466">
      <path
         inkscape:connector-curvature="0"
         style="fill:#ceeeab;fill-opacity:1;stroke:none"
         d="m 9,12.25 c 0,0 7.5,13 11.75,27.75 C 25,54.75 27,65.5 27,65.5 c 0,0 -5.5,12.75 -8.25,24.75 -2.75,12 -5.75,23 -5.75,23 0,0 5.75,16 9.25,30 3.5,14 3.75,24.25 3.75,24.25 0,0 -4,10.25 -7.5,24.25 -3.5,14 -5,30.75 -5,30.75 0,0 9.25,-2 28.5,1.25 19.25,3.25 32.25,6 32.25,6 0,0 12.75,-2.75 24,-6.25 11.25,-3.5 16.25,-6.5 16.25,-6.5 0,0 5.5,0.5 22.5,6.25 17,5.75 29.25,8.5 29.25,8.5 0,0 13,-2.75 26,-5.75 13,-3 26.5,-8 26.5,-8 0,0 -0.75,-5 4.25,-24.5 5,-19.5 8.75,-28 8.75,-28 0,0 -0.5,-4.5 -3.75,-19.75 C 224.75,130.5 218,116 218,116 c 0,0 1.75,-10.5 6.75,-23.75 C 229.75,79 235,65.5 235,65.5 c 0,0 -4.75,-15.25 -7.5,-29.75 C 224.75,21.25 219.25,10 219.25,10 c 0,0 -24.25,9 -31.75,10.5 -7.5,1.5 -21,5.25 -21,5.25 0,0 -9.75,-4.25 -22,-8.5 -12.25,-4.25 -29.75,-5.5 -29.75,-5.5 0,0 -3.25,3.5 -22,8 -18.75,4.5 -27.5,5.75 -27.5,5.75 0,0 -18.5,-9 -31.5,-11.5 -13,-2.5 -24,-2 -24.75,-1.75 z"
         id="path5468" />
    </clipPath>
    <clipPath
       clipPathUnits="userSpaceOnUse"
       id="clipPath5383">
      <path
         inkscape:connector-curvature="0"
         style="fill:#ceeeab;fill-opacity:1;stroke:none"
         d="m 9,12.25 c 0,0 7.5,13 11.75,27.75 C 25,54.75 27,65.5 27,65.5 c 0,0 -5.5,12.75 -8.25,24.75 -2.75,12 -5.75,23 -5.75,23 0,0 5.75,16 9.25,30 3.5,14 3.75,24.25 3.75,24.25 0,0 -4,10.25 -7.5,24.25 -3.5,14 -5,30.75 -5,30.75 0,0 9.25,-2 28.5,1.25 19.25,3.25 32.25,6 32.25,6 0,0 12.75,-2.75 24,-6.25 11.25,-3.5 16.25,-6.5 16.25,-6.5 0,0 5.5,0.5 22.5,6.25 17,5.75 29.25,8.5 29.25,8.5 0,0 13,-2.75 26,-5.75 13,-3 26.5,-8 26.5,-8 0,0 -0.75,-5 4.25,-24.5 5,-19.5 8.75,-28 8.75,-28 0,0 -0.5,-4.5 -3.75,-19.75 C 224.75,130.5 218,116 218,116 c 0,0 1.75,-10.5 6.75,-23.75 C 229.75,79 235,65.5 235,65.5 c 0,0 -4.75,-15.25 -7.5,-29.75 C 224.75,21.25 219.25,10 219.25,10 c 0,0 -24.25,9 -31.75,10.5 -7.5,1.5 -21,5.25 -21,5.25 0,0 -9.75,-4.25 -22,-8.5 -12.25,-4.25 -29.75,-5.5 -29.75,-5.5 0,0 -3.25,3.5 -22,8 -18.75,4.5 -27.5,5.75 -27.5,5.75 0,0 -18.5,-9 -31.5,-11.5 -13,-2.5 -24,-2 -24.75,-1.75 z"
         id="path5385" />
    </clipPath>
    <clipPath
       clipPathUnits="userSpaceOnUse"
       id="clipPath5426">
      <path
         inkscape:connector-curvature="0"
         style="fill:#ceeeab;fill-opacity:1;stroke:none"
         d="m 9,12.25 c 0,0 7.5,13 11.75,27.75 C 25,54.75 27,65.5 27,65.5 c 0,0 -5.5,12.75 -8.25,24.75 -2.75,12 -5.75,23 -5.75,23 0,0 5.75,16 9.25,30 3.5,14 3.75,24.25 3.75,24.25 0,0 -4,10.25 -7.5,24.25 -3.5,14 -5,30.75 -5,30.75 0,0 9.25,-2 28.5,1.25 19.25,3.25 32.25,6 32.25,6 0,0 12.75,-2.75 24,-6.25 11.25,-3.5 16.25,-6.5 16.25,-6.5 0,0 5.5,0.5 22.5,6.25 17,5.75 29.25,8.5 29.25,8.5 0,0 13,-2.75 26,-5.75 13,-3 26.5,-8 26.5,-8 0,0 -0.75,-5 4.25,-24.5 5,-19.5 8.75,-28 8.75,-28 0,0 -0.5,-4.5 -3.75,-19.75 C 224.75,130.5 218,116 218,116 c 0,0 1.75,-10.5 6.75,-23.75 C 229.75,79 235,65.5 235,65.5 c 0,0 -4.75,-15.25 -7.5,-29.75 C 224.75,21.25 219.25,10 219.25,10 c 0,0 -24.25,9 -31.75,10.5 -7.5,1.5 -21,5.25 -21,5.25 0,0 -9.75,-4.25 -22,-8.5 -12.25,-4.25 -29.75,-5.5 -29.75,-5.5 0,0 -3.25,3.5 -22,8 -18.75,4.5 -27.5,5.75 -27.5,5.75 0,0 -18.5,-9 -31.5,-11.5 -13,-2.5 -24,-2 -24.75,-1.75 z"
         id="path5428" />
    </clipPath>
    <linearGradient
       inkscape:collect="always"
       xlink:href="#linearGradient4744-9"
       id="linearGradient4806-9"
       x1="214.25"
       y1="-161.35938"
       x2="166.5"
       y2="-113.71875"
       gradientUnits="userSpaceOnUse" />
    <linearGradient
       inkscape:collect="always"
       id="linearGradient4744-9">
      <stop
         style="stop-color:#ffffff;stop-opacity:1;"
         offset="0"
         id="stop4746-3" />
      <stop
         style="stop-color:#ffffff;stop-opacity:0;"
         offset="1"
         id="stop4748-8" />
    </linearGradient>
    <linearGradient
       inkscape:collect="always"
       xlink:href="#linearGradient4744-9"
       id="linearGradient4790-3"
       x1="53.25"
       y1="-126.5"
       x2="57.65625"
       y2="-62.46875"
       gradientUnits="userSpaceOnUse" />
    <linearGradient
       inkscape:collect="always"
       xlink:href="#linearGradient4744-9"
       id="linearGradient4758-2"
       x1="39.5"
       y1="6.6250248"
       x2="75.71875"
       y2="-17.124975"
       gradientUnits="userSpaceOnUse" />
    <linearGradient
       inkscape:collect="always"
       xlink:href="#linearGradient4744-9"
       id="linearGradient4750-9"
       x1="102"
       y1="-162.34375"
       x2="85.3125"
       y2="-121.4375"
       gradientUnits="userSpaceOnUse" />
    <linearGradient
       inkscape:collect="always"
       xlink:href="#linearGradient4744-9"
       id="linearGradient4782-5"
       x1="117.75"
       y1="-78.09375"
       x2="63.5"
       y2="-14.75"
       gradientUnits="userSpaceOnUse" />
    <linearGradient
       inkscape:collect="always"
       xlink:href="#linearGradient4744-9"
       id="linearGradient4798-4"
       x1="180.68745"
       y1="-125.125"
       x2="133.93745"
       y2="-60.74995"
       gradientUnits="userSpaceOnUse" />
    <linearGradient
       inkscape:collect="always"
       xlink:href="#linearGradient4744-9"
       id="linearGradient4766-3"
       x1="170.75"
       y1="-23.5"
       x2="130.21875"
       y2="33.375"
       gradientUnits="userSpaceOnUse" />
    <linearGradient
       y2="-5.6563001"
       x2="181.75005"
       y1="-76"
       x1="213.5"
       gradientUnits="userSpaceOnUse"
       id="linearGradient4965"
       xlink:href="#linearGradient4744-9"
       inkscape:collect="always" />
    <linearGradient
       inkscape:collect="always"
       xlink:href="#linearGradient4680-7"
       id="linearGradient4686-3"
       x1="94.25"
       y1="-94.671967"
       x2="9"
       y2="-179.96893"
       gradientUnits="userSpaceOnUse" />
    <linearGradient
       id="linearGradient4680-7">
      <stop
         style="stop-color:#000000;stop-opacity:1;"
         offset="0"
         id="stop4682-2" />
      <stop
         style="stop-color:#000000;stop-opacity:0;"
         offset="1"
         id="stop4684-7" />
    </linearGradient>
    <linearGradient
       inkscape:collect="always"
       xlink:href="#linearGradient4680-7"
       id="linearGradient4742-3"
       x1="50.75"
       y1="-114.4375"
       x2="35.75"
       y2="-30.4375"
       gradientUnits="userSpaceOnUse" />
    <linearGradient
       id="linearGradient5459">
      <stop
         style="stop-color:#000000;stop-opacity:1;"
         offset="0"
         id="stop5461" />
      <stop
         style="stop-color:#000000;stop-opacity:0;"
         offset="1"
         id="stop5463" />
    </linearGradient>
    <linearGradient
       inkscape:collect="always"
       xlink:href="#linearGradient4680-7"
       id="linearGradient4734-3"
       x1="77.625"
       y1="-163.125"
       x2="115.25"
       y2="-74.625"
       gradientUnits="userSpaceOnUse" />
    <linearGradient
       id="linearGradient5466">
      <stop
         style="stop-color:#000000;stop-opacity:1;"
         offset="0"
         id="stop5468" />
      <stop
         style="stop-color:#000000;stop-opacity:0;"
         offset="1"
         id="stop5470" />
    </linearGradient>
    <linearGradient
       inkscape:collect="always"
       xlink:href="#linearGradient4680-7"
       id="linearGradient4726-9"
       x1="56.5"
       y1="-50.4375"
       x2="125.71875"
       y2="7.0625"
       gradientUnits="userSpaceOnUse" />
    <linearGradient
       id="linearGradient5473">
      <stop
         style="stop-color:#000000;stop-opacity:1;"
         offset="0"
         id="stop5475" />
      <stop
         style="stop-color:#000000;stop-opacity:0;"
         offset="1"
         id="stop5477" />
    </linearGradient>
    <linearGradient
       inkscape:collect="always"
       xlink:href="#linearGradient4680-7"
       id="linearGradient4710-2"
       x1="35"
       y1="-163.29688"
       x2="180.75"
       y2="-146.79688"
       gradientUnits="userSpaceOnUse" />
    <linearGradient
       id="linearGradient5480">
      <stop
         style="stop-color:#000000;stop-opacity:1;"
         offset="0"
         id="stop5482" />
      <stop
         style="stop-color:#000000;stop-opacity:0;"
         offset="1"
         id="stop5484" />
    </linearGradient>
    <linearGradient
       inkscape:collect="always"
       xlink:href="#linearGradient4680-7"
       id="linearGradient4718-4"
       x1="57.000099"
       y1="-141.10941"
       x2="179"
       y2="-41.609402"
       gradientUnits="userSpaceOnUse" />
    <linearGradient
       id="linearGradient5487">
      <stop
         style="stop-color:#000000;stop-opacity:1;"
         offset="0"
         id="stop5489" />
      <stop
         style="stop-color:#000000;stop-opacity:0;"
         offset="1"
         id="stop5491" />
    </linearGradient>
    <linearGradient
       inkscape:collect="always"
       xlink:href="#linearGradient4680-7"
       id="linearGradient4694-4"
       x1="156"
       y1="-26.5"
       x2="208.25"
       y2="39.75"
       gradientUnits="userSpaceOnUse" />
    <linearGradient
       id="linearGradient5494">
      <stop
         style="stop-color:#000000;stop-opacity:1;"
         offset="0"
         id="stop5496" />
      <stop
         style="stop-color:#000000;stop-opacity:0;"
         offset="1"
         id="stop5498" />
    </linearGradient>
    <linearGradient
       inkscape:collect="always"
       xlink:href="#linearGradient4680-7"
       id="linearGradient4702-4"
       x1="142.75"
       y1="-169.29688"
       x2="235"
       y2="-77.296875"
       gradientUnits="userSpaceOnUse" />
    <linearGradient
       id="linearGradient5501">
      <stop
         style="stop-color:#000000;stop-opacity:1;"
         offset="0"
         id="stop5503" />
      <stop
         style="stop-color:#000000;stop-opacity:0;"
         offset="1"
         id="stop5505" />
    </linearGradient>
    <inkscape:perspective
       sodipodi:type="inkscape:persp3d"
       inkscape:vp_x="0 : 526.18109 : 1"
       inkscape:vp_y="0 : 1000 : 0"
       inkscape:vp_z="744.09448 : 526.18109 : 1"
       inkscape:persp3d-origin="372.04724 : 350.78739 : 1"
       id="perspective3344" />
    <inkscape:perspective
       sodipodi:type="inkscape:persp3d"
       inkscape:vp_x="0 : 526.18109 : 1"
       inkscape:vp_y="0 : 1000 : 0"
       inkscape:vp_z="744.09448 : 526.18109 : 1"
       inkscape:persp3d-origin="372.04724 : 350.78739 : 1"
       id="perspective3329" />
    <inkscape:perspective
       sodipodi:type="inkscape:persp3d"
       inkscape:vp_x="0 : 526.18109 : 1"
       inkscape:vp_y="0 : 1000 : 0"
       inkscape:vp_z="744.09448 : 526.18109 : 1"
       inkscape:persp3d-origin="372.04724 : 350.78739 : 1"
       id="perspective2390" />
    <inkscape:perspective
       id="perspective10"
       inkscape:persp3d-origin="372.04724 : 350.78739 : 1"
       inkscape:vp_z="744.09448 : 526.18109 : 1"
       inkscape:vp_y="0 : 1000 : 0"
       inkscape:vp_x="0 : 526.18109 : 1"
       sodipodi:type="inkscape:persp3d" />
  </defs>
  <rect
     width="256"
     height="256"
     rx="55"
     ry="55"
     x="0"
     y="0"
     fill="#CC5D15"
     id="rect4360"
     style="fill:#3fa341;fill-opacity:1" />
  <rect
     width="246"
     height="246"
     rx="50"
     ry="50"
     x="5"
     y="5"
     fill="#F49C52"
     id="rect4362"
     style="fill:#7acc7d;fill-opacity:1" />
  <rect
     width="236"
     height="236"
     rx="47"
     ry="47"
     x="10"
     y="10"
     fill="url(#RSSg)"
     id="rect4364" />
  <g
     transform="matrix(0.9,0,0,0.9,21.654294,27.680373)"
     style="display:inline"
     id="g5347">
    <path
       inkscape:connector-curvature="0"
       id="path3834-9"
       d="m 9,2.25 c 0,0 7.5,13 11.75,27.75 C 25,44.75 27,55.5 27,55.5 c 0,0 -5.5,12.75 -8.25,24.75 -2.75,12 -5.75,23 -5.75,23 0,0 5.75,16 9.25,30 3.5,14 3.75,24.25 3.75,24.25 0,0 -4,10.25 -7.5,24.25 -3.5,14 -5,30.75 -5,30.75 0,0 9.25,-2 28.5,1.25 19.25,3.25 32.25,6 32.25,6 0,0 12.75,-2.75 24,-6.25 11.25,-3.5 16.25,-6.5 16.25,-6.5 0,0 5.5,0.5 22.5,6.25 17,5.75 29.25,8.5 29.25,8.5 0,0 13,-2.75 26,-5.75 13,-3 26.5,-8 26.5,-8 0,0 -0.75,-5 4.25,-24.5 5,-19.5 8.75,-28 8.75,-28 0,0 -0.5,-4.5 -3.75,-19.75 C 224.75,120.5 218,106 218,106 c 0,0 1.75,-10.5 6.75,-23.75 C 229.75,69 235,55.5 235,55.5 c 0,0 -4.75,-15.25 -7.5,-29.75 C 224.75,11.25 219.25,0 219.25,0 c 0,0 -24.25,9 -31.75,10.5 -7.5,1.5 -21,5.25 -21,5.25 0,0 -9.75,-4.25 -22,-8.5 -12.25,-4.25 -29.75,-5.5 -29.75,-5.5 0,0 -3.25,3.5 -22,8 -18.75,4.5 -27.5,5.75 -27.5,5.75 0,0 -18.5,-9 -31.5,-11.5 C 20.75,1.5 9.75,2 9,2.25 z"
       style="fill:#ceeeab;fill-opacity:1;stroke:none;display:inline" />
    <g
       transform="translate(0,-10)"
       clip-path="url(#clipPath5466)"
       id="g5438"
       style="display:inline">
      <path
         inkscape:connector-curvature="0"
         id="path5436"
         d="m 110.75,5.5 -4.25,7 c -0.75,9 -2.25,13.75 -8.5,16.5 -6.25,2.75 -12.25,3.5 -11,7.5 1.25,4 13,9.25 14.25,13 1.25,3.75 8.25,1.75 11,7 2.75,5.25 2,15.25 -3.75,17.25 -5.75,2 -17.5,0.5 -20.25,9.5 -2.75,9 -4.75,10.5 -9,12.75 -4.25,2.25 -7.25,10.5 -3.5,16.5 3.75,6 12.25,-1.25 15,-6.5 C 93.5,100.75 98,97.25 98,97.25 l 23.75,0 59,-1.75 3.25,-3.75 c 0,0 3.25,4 2.75,8.75 -0.5,4.75 -3.75,14.75 0.25,17.25 4,2.5 19.5,-2 24,-7 4.5,-5 -4.75,-28.25 -10.5,-29.5 -5.75,-1.25 -18.5,-1.75 -17,-7 1.5,-5.25 11.75,4.5 17.25,3.25 5.5,-1.25 16.75,-21 12,-25.25 C 208,48 188.5,47 187,44.25 c -1.5,-2.75 21,-8 22.25,-11 1.25,-3 -2.5,-7.25 -6.25,-8.5 C 199.25,23.5 189,41 182,40.5 175,40 162,46.25 164.75,52 c 2.75,5.75 -6,11 -14.5,6.5 -8.5,-4.5 -24.75,-13 -21.75,-24 3,-11 21.5,-18.75 21.5,-18.75 L 110.75,5.5 z M 97.1875,112.71875 c -1.594849,0.14648 -4.46875,4.6875 -4.9375,7.03125 -0.5,2.5 -3.25,6.75 -3.5,12.25 -0.25,5.5 4.75,6.75 8.75,6.5 4,-0.25 2.75,-6.75 2,-15 -0.25,0 -0.5,-10.25 -2,-10.75 -0.09375,-0.0312 -0.206177,-0.041 -0.3125,-0.0312 l 0,-5e-5 z m 92.71875,51.65625 c -6.33545,0.29541 -6.625,7.46875 -7.40625,8.875 -1.25,2.25 2.25,13.75 2,18 -0.25,4.25 -4.75,5.25 -9.5,9.75 -4.75,4.5 0.5,16 11.25,31 l 44.75,1.25 -1,-35 c 0,0 4.75,-4.25 -20.75,-24.25 -9.5625,-7.5 -15.54248,-9.80225 -19.34375,-9.625 z M 39.9375,180.90625 C 35.908264,180.80371 31.65625,186.625 30.25,188.5 c -1.5,2 -6.25,5 -17,9.5 l -14.5,34.25 53,4.25 c 0,0 1.75,-11 -4.25,-15.75 C 41.5,216 30.25,215 29.25,207.5 28.25,200 38.5,197.5 43,193.25 47.5,189 45,182 40.75,181 c -0.265625,-0.0625 -0.543884,-0.0869 -0.8125,-0.0937 l 0,-5e-5 z"
         style="fill:#a6dd8b;fill-opacity:1;stroke:none" />
    </g>
    <path
       inkscape:connector-curvature="0"
       id="path5280"
       d="M 158.53125,75.34375 C 153.77142,75.329407 149.5,76.3125 147,78.5 c -8,7 -35,0.75 -48.5,7 -13.5,6.25 -13.25,38 -14.75,44.5 -1.5,6.5 -17.5,20.75 -20,23.5 -2.5,2.75 -13.25,7.25 -19.5,8.5 -6.25,1.25 -12.75,7.25 -15.5,11 -2.021124,2.75608 -7.406019,6.45031 -10.125,8.21875 -0.0458,0.18128 -0.07936,0.34868 -0.125,0.53125 -0.133689,0.53475 -0.24712,1.08331 -0.375,1.625 4.979513,-1.60482 11.179508,-8.17951 16.625,-13.625 6.25,-6.25 20,-7.75 27.75,-11.5 7.75,-3.75 14.25,-19.75 26.5,-23.75 12.25,-4 21.25,11.75 24.25,18.5 3,6.75 1.75,12.75 3.75,17 2,4.25 11,11.75 11.5,13.5 0.5,1.75 -5,6.5 -6.25,8.5 -1.25,2 -10.5,7 -11.75,8.75 -0.96568,1.35195 -1.92316,6.77314 -2.3125,9.21875 0.41303,-0.1692 0.75418,-0.31053 1.125,-0.46875 0.484,-2.52933 1.51549,-7.07799 2.9375,-8.5 2,-2 11.25,-4.5 12.5,-8.5 1.25,-4 7,-6.5 7,-6.5 0,0 2.75,4 16,14 8.83333,6.66667 12.7581,15.53356 14.40625,20.71875 0.6736,0.17065 1.53295,0.4094 2.03125,0.53125 -1.22115,-4.31871 -4.83646,-16.23885 -8.9375,-20.75 -5,-5.5 -18.5,-10.75 -22.75,-22 -4.25,-11.25 -24.5,-34.25 -17.5,-40.25 7,-6 16.5,-4 28.5,7.5 12,11.5 46.25,5.75 57.75,3.75 9.95453,-1.73122 20.83445,14.88321 23.90625,26.03125 0.589,-2.09567 1.12663,-4.00219 1.65625,-5.75 -1.73806,-1.9258 -3.69722,-4.61996 -5.3125,-8.28125 -3.75,-8.5 -12,-13.25 -12,-13.25 0,0 8.75,-5 14.75,-7.75 1.61703,-0.74114 3.00627,-1.67713 4.1875,-2.65625 -0.16234,-0.77403 -0.25893,-1.25585 -0.4375,-2.09375 -0.0311,-0.14611 -0.062,-0.29154 -0.0937,-0.4375 -4.76565,5.5624 -19.23226,9.61532 -21.65625,10.9375 -2.75,1.5 -18.25,3 -35.75,4.5 -17.5,1.5 -26.75,-7.5 -34.25,-14.75 -7.5,-7.25 -13,-36 -3,-38 10,-2 20,13.75 30,17 10,3.25 21.5,-15.75 19.75,-27 -1.20312,-7.734375 -13.99713,-12.624695 -24.46875,-12.65625 l -5e-5,0 z M 105.1875,88.625 c 1.27533,0.0015 5.85938,1.59375 6.5625,2.375 2.25,2.5 2,7.25 0,8 -2,0.75 -12.75,8 -10.5,14.25 2.25,6.25 1.75,18 -3.5,18 -5.25,0 -8,0 -10,-2.5 -2,-2.5 -2,-12 0,-19.75 2,-7.75 3.5,-15 8,-18.25 3.09375,-2.23438 6.63177,-2.128357 9.4375,-2.125 l 0,0 z m 13.59375,73.09375 c 0.20325,0.0137 1.90625,3.51563 4.71875,7.03125 3,3.75 3.25,8.25 3.25,8.25 0,0 -4.25,-4.75 -6,-8 -1.75,-3.25 -2,-7.25 -2,-7.25 0,-0.0312 0.0178,-0.0323 0.0312,-0.0312 l 5e-5,-5e-5 z"
       style="fill:#aac3e7;fill-opacity:1;stroke:none;display:inline" />
    <path
       inkscape:connector-curvature="0"
       id="path5319"
       d="M 122.75,62.25 C 129,62.75 135,60 133.5,55.75 132,51.5 121,48.5 120.25,52.75 c -0.75,4.25 2,10.5 2.5,9.5 z"
       style="opacity:0.38695655;fill:none;stroke:#6d7f42;stroke-width:1;stroke-linecap:round;stroke-linejoin:round;stroke-miterlimit:4;stroke-opacity:1;stroke-dasharray:none;display:inline" />
    <path
       inkscape:connector-curvature="0"
       id="path5321"
       d="m 108.75,46.75 c -8.5,-5.5 -8.5,-7.25 -7,-8 1.5,-0.75 10.25,5 12.75,8 2.5,3 -2.25,2 -5.75,0 z"
       style="opacity:0.38695655;fill:none;stroke:#6d7f42;stroke-width:1;stroke-linecap:round;stroke-linejoin:round;stroke-miterlimit:4;stroke-opacity:1;stroke-dasharray:none;display:inline" />
    <g
       transform="translate(0,-10)"
       clip-path="url(#clipPath5383)"
       id="g5373"
       style="display:inline">
      <path
         inkscape:connector-curvature="0"
         style="opacity:0.38695655;fill:none;stroke:#6d7f42;stroke-width:1;stroke-linecap:round;stroke-linejoin:round;stroke-miterlimit:4;stroke-opacity:1;stroke-dasharray:none"
         d="M 15.75,151.25 C 48.75,148.75 54,147.75 52,141 50,134.25 43.25,117.5 29,118.5 14.75,119.5 6.25,111.75 6.25,111.75"
         id="path5323" />
      <path
         inkscape:connector-curvature="0"
         style="opacity:0.38695655;fill:none;stroke:#6d7f42;stroke-opacity:1"
         d="m 17.5,177.25 c 18.25,-10 28.75,-8.5 35,-11.5 6.25,-3 13.25,-5.75 15.75,-9.5 2.5,-3.75 5.75,-11.5 5.75,-18 0,-6.5 -3.5,-36 3.25,-43.5 6.75,-7.5 17.25,-26 26,-23.25 8.75,2.75 12.25,9.75 22,9.5 9.75,-0.25 21.75,-4 24.25,-12.25 2.5,-8.25 -15.75,-16 -16,-23 -0.25,-7 5.5,-14.25 20.25,-17 14.75,-2.75 23.5,-11.5 23.5,-11.5"
         id="path5311" />
      <path
         inkscape:connector-curvature="0"
         style="opacity:0.38695655;fill:none;stroke:#6d7f42;stroke-width:1;stroke-linecap:round;stroke-linejoin:round;stroke-miterlimit:4;stroke-opacity:1;stroke-dasharray:none"
         d="m 14.5,161 c 15.25,-1.5 22.25,3.5 31.5,1.75 9.25,-1.75 13.25,-3 17.75,-5.75 4.5,-2.75 6,-3.75 6.25,-6.5 0.25,-2.75 1,-12.5 -3,-22 C 63,119 54.5,97 58.75,89.75 63,82.5 64,68.25 74.5,65.25 85,62.25 95.5,59 102.25,64 c 6.75,5 12.75,14.25 20,14.5 7.25,0.25 11.75,-1.5 14.5,-4.5 2.75,-3 4.5,-10.25 1.75,-13.75 -2.75,-3.5 -15.5,-5.5 -17.25,-9.5 -1.75,-4 -10.75,-17 -0.25,-26.75 10.5,-9.75 36.25,-8.25 36.25,-8.25"
         id="path5313" />
      <path
         inkscape:connector-curvature="0"
         style="opacity:0.38695655;fill:none;stroke:#6d7f42;stroke-width:1;stroke-linecap:round;stroke-linejoin:round;stroke-miterlimit:4;stroke-opacity:1;stroke-dasharray:none"
         d="m 21.25,159 c 13.75,1 21.5,4.25 33.5,-0.5 12,-4.75 13.5,-5.25 13.75,-8.75 0.25,-3.5 -0.25,-15.75 -3,-20 C 62.75,125.5 52.5,116 49.75,105.5 47,95 50,64.5 58.25,57.25 66.5,50 90.25,50 95.75,46.75 c 5.5,-3.25 5.25,-16.75 13,-24.5 7.75,-7.75 27,-12.2500003 27,-12.2500003"
         id="path5315" />
      <path
         inkscape:connector-curvature="0"
         style="opacity:0.38695655;fill:none;stroke:#6d7f42;stroke-width:1;stroke-linecap:round;stroke-linejoin:round;stroke-miterlimit:4;stroke-opacity:1;stroke-dasharray:none"
         d="m 190,18.5 c 11.75,5 39,9.75 47.25,40.25"
         id="path5317" />
      <path
         inkscape:connector-curvature="0"
         style="opacity:0.38695655;fill:none;stroke:#6d7f42;stroke-width:1;stroke-linecap:round;stroke-linejoin:round;stroke-miterlimit:4;stroke-opacity:1;stroke-dasharray:none"
         d="m 9.75,214 c 19,-12.5 36,-1.25 49,-4 13,-2.75 38.25,-37.25 46,-37 7.75,0.25 5.5,-11.75 8.5,-13.25 3,-1.5 5.5,6 11.75,8 6.25,2 24.5,-2.75 23.5,-5.75 -1,-3 -7,-7.75 -5.5,-8.5 1.5,-0.75 8.5,5 12.75,3.5 4.25,-1.5 43.75,-1 48.5,-13.5 C 209,131 225.75,130 225.75,130"
         id="path5325" />
      <path
         inkscape:connector-curvature="0"
         style="opacity:0.38695655;fill:none;stroke:#6d7f42;stroke-width:1;stroke-linecap:round;stroke-linejoin:round;stroke-miterlimit:4;stroke-opacity:1;stroke-dasharray:none"
         d="m 77.5,233.5 c 13.5,-11.5 23.25,-25 28.5,-27 5.25,-2 12.75,-3.75 15.75,-8 3,-4.25 2.5,-10.75 5.25,-12 2.75,-1.25 3.75,5.75 8.75,6 5,0.25 36.75,-5 42.75,-11.75 6,-6.75 32.25,-12.5 32.5,-14.5 0.25,-2 -1,-4.75 0.25,-5.5 1.25,-0.75 24.75,-6 24.75,-6"
         id="path5327"
         sodipodi:nodetypes="csssssssc" />
      <path
         inkscape:connector-curvature="0"
         style="opacity:0.38695655;fill:none;stroke:#6d7f42;stroke-width:1;stroke-linecap:round;stroke-linejoin:round;stroke-miterlimit:4;stroke-opacity:1;stroke-dasharray:none"
         d="m 168.75,236 c 9,-13.75 20.5,-41 29.5,-42 9,-1 10.25,-2.5 12.5,-4.25 2.25,-1.75 17,2.25 17,2.25"
         id="path5329" />
    </g>
    <g
       transform="translate(0,-10)"
       clip-path="url(#clipPath5426)"
       id="g5400"
       style="display:inline">
      <path
         inkscape:connector-curvature="0"
         style="fill:none;stroke:#d38484;stroke-width:2;stroke-linecap:round;stroke-linejoin:miter;stroke-miterlimit:4;stroke-opacity:1;stroke-dasharray:none"
         d="m 57.75,20 -8.5,28.25 18,6.25 L 75,90.75 54,113 l 9,10.5 -12,11.5 0.5,4.5 20.25,24.5 14,-6.75 20.5,18.5 -10.5,28.25 10.25,8.5 -2.75,13"
         id="path5387" />
      <path
         inkscape:connector-curvature="0"
         style="fill:none;stroke:#d38484;stroke-width:2;stroke-linecap:round;stroke-linejoin:miter;stroke-miterlimit:4;stroke-opacity:1;stroke-dasharray:none"
         d="m 105.75,212.25 12.5,-27.75 11,-7 27.5,15.75 20.5,-3.75 -0.25,-15.75 -10.25,-6 12.75,-26.25 5.75,-3.75 38.75,-10"
         id="path5389" />
    </g>
    <g
       style="opacity:0.2695656"
       id="g4808"
       transform="translate(0,182)">
      <path
         inkscape:connector-curvature="0"
         style="fill:url(#linearGradient4806-9);fill-opacity:1;stroke:none"
         d="m 219.25,-182 c 0,0 -24.25,9 -31.75,10.5 -7.5,1.5 -21,5.25 -21,5.25 4.92395,-1.35833 11.43679,45.39247 14.25,52.25 l -0.0625,0.28125 c 11.80794,-4.07379 51.21047,-4.76768 54.3125,-12.78125 0,0 -4.75,-15.25 -7.5,-29.75 -2.75,-14.5 -8.25,-25.75 -8.25,-25.75 z"
         id="path3834-4-9" />
      <path
         inkscape:connector-curvature="0"
         style="fill:url(#linearGradient4790-3);fill-opacity:1;stroke:none"
         d="m 27,-126.5 c 0,0 -5.5,12.75 -8.25,24.75 -2.75,12 -5.75,23 -5.75,23 L 63.625,-62.46875 79.40625,-121.375 27,-126.5 z"
         id="path3834-7-2-4-9" />
      <path
         inkscape:connector-curvature="0"
         style="fill:url(#linearGradient4758-2);fill-opacity:1;stroke:none"
         d="m 26,-24.5 c 0,0 -4,10.25 -7.5,24.25 -3.5,14 -5,30.75 -5,30.75 0,0 0.146973,-0.0454 0.4375,-0.0937 2.033691,-0.33838 11.21875,-1.5 28.0625,1.34375 19.25,3.25 32.25,6 32.25,6 l 1.46875,-52.5 -0.75,0.125 L 26,-24.5 z"
         id="path3834-7-26-9-7" />
      <path
         inkscape:connector-curvature="0"
         style="fill:url(#linearGradient4750-9);fill-opacity:1;stroke:none"
         d="m 114.75,-180.25 c 0,0 -3.25,3.5 -22,8 -18.749997,4.5 -27.5,5.75 -27.5,5.75 5.182295,14.70354 12.029793,29.27003 14.25,44.75 l -0.09375,0.3125 48.03125,-3.9375 1.125,0.25 c -3.36248,-13.3228 -7.79603,-54.59189 -13.8125,-55.125 z"
         id="path3834-4-9-6" />
      <path
         inkscape:connector-curvature="0"
         style="fill:url(#linearGradient4782-5);fill-opacity:1;stroke:none"
         d="M 117.59375,-78.09375 63.96875,-62.375 63.625,-62.46875 63.5,-62 l 12.25,46.5 -0.03125,0.75 49.46875,-8.875 0.53125,0.1875 0.0312,-0.0625 -8.25,-54.25 0.0937,-0.34375 1e-4,0 z"
         id="path3834-7-26-0-0-9" />
      <path
         inkscape:connector-curvature="0"
         style="fill:url(#linearGradient4798-4);fill-opacity:1;stroke:none"
         d="m 128.5625,-125.125 c 0.2342,0.92795 0.46352,1.74163 0.6875,2.375 l -11.65625,44.65625 0.0937,-0.0312 51.8125,17.375 11.1875,-52.96875 c -0.35691,0.12314 -0.69529,0.24538 -1,0.375 l -51.125,-11.78125 5e-5,-5e-5 z"
         id="path3834-7-2-4-3" />
      <path
         inkscape:connector-curvature="0"
         style="fill:url(#linearGradient4766-3);fill-opacity:1;stroke:none"
         d="M 125.53125,-23.5 114.5,25 c 0,0 5.5,0.5 22.5,6.25 2.125,0.71875 4.16309,1.40576 6.125,2.03125 1.96191,0.62549 3.85547,1.18555 5.625,1.71875 10.61719,3.19922 17.5,4.75 17.5,4.75 l 12.71875,-45.40625 c -0.51226,0.18264 -1.01849,0.381 -1.53125,0.5625 L 125.53125,-23.5 z"
         id="path3834-7-26-9-85" />
      <path
         inkscape:connector-curvature="0"
         style="fill:url(#linearGradient4965);fill-opacity:1;stroke:none"
         d="m 218,-76 c -15.66556,6.28803 -31.69786,11.14964 -48.0625,15.40625 L 169.5,-60.75 l 9.5,55 -0.0312,0.0937 c 17.83902,-6.36013 35.38148,-13.3867 52.78125,-20.84375 0,0 -0.5,-4.5 -3.75,-19.75 C 224.75,-61.5 218,-76 218,-76 z"
         id="path3834-7-26-0-0-3" />
    </g>
    <g
       style="opacity:0.04347827"
       id="g4818"
       transform="translate(0,182)">
      <path
         inkscape:connector-curvature="0"
         style="fill:url(#linearGradient4686-3);fill-opacity:1;stroke:none"
         d="m 13.71875,-179.96875 c -1.10624,-0.003 -1.972215,0.0321 -2.71875,0.0625 -0.44524,0.0181 -0.855414,0.039 -1.15625,0.0625 -0.02929,0.002 -0.06595,-0.002 -0.09375,0 -0.397949,0.0327 -0.65625,0.0625 -0.75,0.0937 0,0 7.5,13 11.75,27.75 C 25,-137.25 27,-126.5 27,-126.5 l 51.46875,5.125 0.9375,-0.0625 L 79.5,-121.75 c -2.220207,-15.47997 -9.067705,-30.04646 -14.25,-44.75 0,0 -18.5,-9 -31.5,-11.5 -1.018266,-0.19582 -2.01024,-0.37068 -3,-0.53125 -0.595613,-0.0967 -1.166881,-0.19638 -1.75,-0.28125 -0.236584,-0.0344 -0.453191,-0.0612 -0.6875,-0.0937 -1.306478,-0.18185 -2.588005,-0.34039 -3.8125,-0.46875 -0.734553,-0.077 -1.394596,-0.12759 -2.09375,-0.1875 -0.684889,-0.0591 -1.352939,-0.11189 -2,-0.15625 -0.991872,-0.0678 -1.890406,-0.11834 -2.78125,-0.15625 -1.456368,-0.0631 -2.769165,-0.0907 -3.90625,-0.0937 l 0,-1e-4 z"
         id="path3834-4-9-1" />
      <path
         inkscape:connector-curvature="0"
         style="fill:url(#linearGradient4742-3);fill-opacity:1;stroke:none"
         d="m 13,-78.75 c 0,0 5.75,16 9.25,30 3.5,14 3.75,24.25 3.75,24.25 l 48.96875,9.875 0.75,-0.125 L 75.75,-15.5 63.5,-62 63.625,-62.46875 13,-78.75 z"
         id="path3834-7-26-0-0-7" />
      <path
         inkscape:connector-curvature="0"
         style="fill:url(#linearGradient4734-3);fill-opacity:1;stroke:none"
         d="m 127.4375,-125.375 -47.96875,4 -0.0625,0 -15.78125,58.90625 0.34375,0.09375 53.625,-15.71875 L 129.25,-122.75 c -0.22398,-0.63337 -0.4533,-1.44705 -0.6875,-2.375 l -1.125,-0.25 0,0 z"
         id="path3834-7-2-4-6" />
      <path
         inkscape:connector-curvature="0"
         style="fill:url(#linearGradient4726-9);fill-opacity:1;stroke:none"
         d="M 125.1875,-23.625 75.71875,-14.75 74.25,37.75 c 0,0 12.750003,-2.75 24,-6.25 C 109.5,28 114.5,25 114.5,25 l 11.21875,-48.4375 -0.53125,-0.1875 z"
         id="path3834-7-26-9-8" />
      <path
         inkscape:connector-curvature="0"
         style="fill:url(#linearGradient4710-2);fill-opacity:1;stroke:none"
         d="m 114.75,-180.25 c 6.01647,0.53311 10.45002,41.8022 13.8125,55.125 l 51.125,11.78125 c 0.30471,-0.12962 0.64309,-0.25186 1,-0.375 L 180.75,-114 c -2.81321,-6.85753 -9.32605,-53.60833 -14.25,-52.25 0,0 -0.61328,-0.25391 -1.71875,-0.71875 -3.31641,-1.39453 -11.09375,-4.59375 -20.28125,-7.78125 -12.25,-4.25 -29.75,-5.5 -29.75,-5.5 z"
         id="path3834-4-9-2" />
      <path
         inkscape:connector-curvature="0"
         style="fill:url(#linearGradient4718-4);fill-opacity:1;stroke:none"
         d="m 117.6875,-78.125 -0.0937,0.0312 -0.0937,0.34375 8.25,53.25 -0.21875,1 51.90625,18.40625 c 0.51276,-0.1815 1.01899,-0.37986 1.53125,-0.5625 L 179,-5.75 l -9.5,-55 -51.8125,-17.375 0,0 z"
         id="path3834-7-26-0-0-0" />
      <path
         inkscape:connector-curvature="0"
         style="fill:url(#linearGradient4694-4);fill-opacity:1;stroke:none"
         d="m 231.75,-26.5 c -17.39977,7.45705 -34.94223,14.48362 -52.78125,20.84375 L 166.25,39.75 c 0,0 13,-2.75 26,-5.75 13,-3 26.5,-8 26.5,-8 0,0 -0.75,-5 4.25,-24.5 5,-19.5 8.75,-28 8.75,-28 z"
         id="path3834-7-26-9-9" />
      <path
         inkscape:connector-curvature="0"
         style="fill:url(#linearGradient4702-4);fill-opacity:1;stroke:none"
         d="m 235,-126.5 c -3.10203,8.01357 -42.50456,8.70746 -54.3125,12.78125 L 169.5,-60.75 l 0.4375,0.15625 C 186.30214,-64.85036 202.33444,-69.71197 218,-76 c 0,0 1.75,-10.5 6.75,-23.75 5,-13.25 10.25,-26.75 10.25,-26.75 z"
         id="path3834-7-2-4-5" />
    </g>
  </g>
  <g
     id="layer1"
     inkscape:label="Ebene 1"
     transform="matrix(3.5187166,0,0,3.5187166,162.70589,28.235293)">
    <g
       style="fill:#000000;fill-opacity:1;stroke:#000000;stroke-opacity:1"
       id="g3318"
       transform="matrix(0.05246251,0,0,0.05246251,2.1577729,3.7679654)" />
    <g
       id="g7987"
       transform="translate(-17.702128,5.8358662)">
      <path
         inkscape:connector-curvature="0"
         style="fill:#65b94a;fill-opacity:1;stroke:#000000;stroke-width:0.92843848;stroke-opacity:1"
         d="M 8.5809546,28.630682 C 8.5177991,26.805448 6.6748445,19.462276 3.5046008,15.983591 -2.5310291,9.3607404 0.99806998,0.46421965 9.0102644,0.46421965 c 8.0530256,0 11.4862116,8.42911255 5.4847986,15.89987635 -3.292318,4.098389 -5.1870076,11.390417 -5.2397247,12.611046 -0.052717,1.22063 -0.048611,1.802715 -0.2450739,2.560639 C 8.8135143,30.835678 8.6441099,30.455916 8.5809546,28.630682 z"
         id="path2396"
         sodipodi:nodetypes="cssszcz" />
      <path
         transform="matrix(0.56838905,0,0,0.56838905,-46.240123,-8.0243157)"
         d="m 101.30481,29.433155 c 0,2.268207 -1.838742,4.106952 -4.106949,4.106952 -2.268207,0 -4.106952,-1.838745 -4.106952,-4.106952 0,-2.268207 1.838745,-4.106952 4.106952,-4.106952 2.268207,0 4.106949,1.838745 4.106949,4.106952 z"
         sodipodi:ry="4.1069517"
         sodipodi:rx="4.1069517"
         sodipodi:cy="29.433155"
         sodipodi:cx="97.197861"
         id="path6695"
         style="fill:#000000;fill-opacity:1"
         sodipodi:type="arc" />
    </g>
  </g>
</svg>
