<?xml version="1.0" encoding="UTF-8" standalone="no"?>
<svg
   xmlns:dc="http://purl.org/dc/elements/1.1/"
   xmlns:cc="http://creativecommons.org/ns#"
   xmlns:rdf="http://www.w3.org/1999/02/22-rdf-syntax-ns#"
   xmlns:svg="http://www.w3.org/2000/svg"
   xmlns="http://www.w3.org/2000/svg"
   xmlns:sodipodi="http://sodipodi.sourceforge.net/DTD/sodipodi-0.dtd"
   xmlns:inkscape="http://www.inkscape.org/namespaces/inkscape"
   version="1.1"
   width="128px"
   height="128px"
   id="RSSicon"
   viewBox="0 0 256 256"
   inkscape:version="0.48.1 r9760"
   sodipodi:docname="video.svg">
  <metadata
     id="metadata4374">
    <rdf:RDF>
      <cc:Work
         rdf:about="">
        <dc:format>image/svg+xml</dc:format>
        <dc:type
           rdf:resource="http://purl.org/dc/dcmitype/StillImage" />
        <dc:title></dc:title>
      </cc:Work>
    </rdf:RDF>
  </metadata>
  <sodipodi:namedview
     pagecolor="#ffffff"
     bordercolor="#666666"
     borderopacity="1"
     objecttolerance="10"
     gridtolerance="10"
     guidetolerance="10"
     inkscape:pageopacity="0"
     inkscape:pageshadow="2"
     inkscape:window-width="1024"
     inkscape:window-height="553"
     id="namedview4372"
     showgrid="false"
     inkscape:zoom="2.3515625"
     inkscape:cx="40.713638"
     inkscape:cy="64"
     inkscape:window-x="-3"
     inkscape:window-y="-3"
     inkscape:window-maximized="1"
     inkscape:current-layer="RSSicon" />
  <defs
     id="defs4343">
    <linearGradient
       x1="0.085"
       y1="0.085"
       x2="0.915"
       y2="0.915"
       id="RSSg">
      <stop
         offset="0"
         stop-color="#E3702D"
         id="stop4346"
         style="stop-color:#808080;stop-opacity:1;" />
      <stop
         offset="0.5"
         stop-color="#FB9E3A"
         id="stop4352"
         style="stop-color:#c4c4c4;stop-opacity:1;" />
      <stop
         offset="1"
         stop-color="#D95B29"
         id="stop4358"
         style="stop-color:#808080;stop-opacity:1;" />
    </linearGradient>
  </defs>
  <rect
     width="256"
     height="256"
     rx="55"
     ry="55"
     x="0"
     y="0"
     fill="#CC5D15"
     id="rect4360"
     style="fill:#808080;fill-opacity:1" />
  <rect
     width="246"
     height="246"
     rx="50"
     ry="50"
     x="5"
     y="5"
     fill="#F49C52"
     id="rect4362"
     style="fill:#d4d4d4;fill-opacity:1" />
  <rect
     width="236"
     height="236"
     rx="47"
     ry="47"
     x="10"
     y="10"
     fill="url(#RSSg)"
     id="rect4364" />
  <g
     transform="matrix(0.14160359,-1.4624876,1.4624876,0.14160359,-1331.4195,84.351454)"
     id="layer1"
     inkscape:label="Layer 1">
    <path
       inkscape:connector-curvature="0"
       id="rect10"
       d="m 0,928.375 0,124 134.625,0 0,-124 -134.625,0 z m 6.96875,6.34375 2.84375,0 c 0.981496,0 1.75,0.79975 1.75,1.78125 l 0,6.375 c 0,0.9815 -0.768504,1.78125 -1.75,1.78125 l -2.84375,0 c -0.9814961,0 -1.78125,-0.79975 -1.78125,-1.78125 l 0,-6.375 c 0,-0.9815 0.7997539,-1.78125 1.78125,-1.78125 z m 16.84375,0 2.8125,0 c 0.981496,0 1.78125,0.79975 1.78125,1.78125 l 0,6.375 c 0,0.9815 -0.799754,1.78125 -1.78125,1.78125 l -2.8125,0 c -0.981496,0 -1.78125,-0.79975 -1.78125,-1.78125 l 0,-6.375 c 0,-0.9815 0.799754,-1.78125 1.78125,-1.78125 z m 16.8125,0 2.84375,0 c 0.981496,0 1.78125,0.79975 1.78125,1.78125 l 0,6.375 c 0,0.9815 -0.799754,1.78125 -1.78125,1.78125 l -2.84375,0 c -0.981496,0 -1.75,-0.79975 -1.75,-1.78125 l 0,-6.375 c 0,-0.9815 0.768504,-1.78125 1.75,-1.78125 z m 16.84375,0 2.84375,0 c 0.981496,0 1.78125,0.79975 1.78125,1.78125 l 0,6.375 c 0,0.9815 -0.799754,1.78125 -1.78125,1.78125 l -2.84375,0 c -0.981496,0 -1.75,-0.79975 -1.75,-1.78125 l 0,-6.375 c 0,-0.9815 0.768504,-1.78125 1.75,-1.78125 z m 16.84375,0 2.84375,0 c 0.981496,0 1.75,0.79975 1.75,1.78125 l 0,6.375 c 0,0.9815 -0.768504,1.78125 -1.75,1.78125 l -2.84375,0 c -0.981496,0 -1.78125,-0.79975 -1.78125,-1.78125 l 0,-6.375 c 0,-0.9815 0.799754,-1.78125 1.78125,-1.78125 z m 16.84375,0 2.84375,0 c 0.981496,0 1.75,0.79975 1.75,1.78125 l 0,6.375 c 0,0.9815 -0.768504,1.78125 -1.75,1.78125 l -2.84375,0 c -0.981496,0 -1.78125,-0.79975 -1.78125,-1.78125 l 0,-6.375 c 0,-0.9815 0.799754,-1.78125 1.78125,-1.78125 z m 16.84375,0 2.8125,0 c 0.9815,0 1.78125,0.79975 1.78125,1.78125 l 0,6.375 c 0,0.9815 -0.79975,1.78125 -1.78125,1.78125 l -2.8125,0 c -0.9815,0 -1.78125,-0.79975 -1.78125,-1.78125 l 0,-6.375 c 0,-0.9815 0.79975,-1.78125 1.78125,-1.78125 z m 16.8125,0 2.84375,0 c 0.9815,0 1.78125,0.79975 1.78125,1.78125 l 0,6.375 c 0,0.9815 -0.79975,1.78125 -1.78125,1.78125 l -2.84375,0 c -0.9815,0 -1.75,-0.79975 -1.75,-1.78125 l 0,-6.375 c 0,-0.9815 0.7685,-1.78125 1.75,-1.78125 z m -121.28125,13.125 127.5625,0 0,85.03125 -127.5625,0 0,-85.03125 z m 2.875,88.93745 2.84375,0 c 0.981496,0 1.78125,0.7686 1.78125,1.75 l 0,6.375 c 0,0.9815 -0.799754,1.7813 -1.78125,1.7813 l -2.84375,0 c -0.9814961,0 -1.75,-0.7998 -1.75,-1.7813 l 0,-6.375 c 0,-0.9814 0.7685039,-1.75 1.75,-1.75 z m 16.84375,0 2.84375,0 c 0.981496,0 1.78125,0.7686 1.78125,1.75 l 0,6.375 c 0,0.9816 -0.799754,1.7813 -1.78125,1.7813 l -2.84375,0 c -0.981496,0 -1.75,-0.7997 -1.75,-1.7813 l 0,-6.375 c 0,-0.9813 0.768504,-1.75 1.75,-1.75 z m 16.84375,0 2.84375,0 c 0.981496,0 1.78125,0.7686 1.78125,1.75 l 0,6.375 c 0,0.9817 -0.799754,1.7813 -1.78125,1.7813 l -2.84375,0 c -0.981496,0 -1.78125,-0.7996 -1.78125,-1.7813 l 0,-6.375 c 0,-0.9812 0.799754,-1.75 1.78125,-1.75 z m 16.84375,0 2.84375,0 c 0.981496,0 1.75,0.7686 1.75,1.75 l 0,6.375 c 0,0.9818 -0.768504,1.7813 -1.75,1.7813 l -2.84375,0 c -0.981496,0 -1.78125,-0.7996 -1.78125,-1.7813 l 0,-6.375 c 0,-0.9811 0.799754,-1.75 1.78125,-1.75 z m 16.84375,0 2.8125,0 c 0.981496,0 1.78125,0.7686 1.78125,1.75 l 0,6.375 c 0,0.9819 -0.799754,1.7813 -1.78125,1.7813 l -2.8125,0 c -0.981496,0 -1.78125,-0.7996 -1.78125,-1.7813 l 0,-6.375 c 0,-0.981 0.799754,-1.75 1.78125,-1.75 z m 16.84375,0 2.8125,0 c 0.981496,0 1.78125,0.7686 1.78125,1.75 l 0,6.375 c 0,0.9819 -0.799754,1.7813 -1.78125,1.7813 l -2.8125,0 c -0.981496,0 -1.78125,-0.7996 -1.78125,-1.7813 l 0,-6.375 c 0,-0.9809 0.799754,-1.75 1.78125,-1.75 z m 16.8125,0 2.84375,0 c 0.9815,0 1.78125,0.7686 1.78125,1.75 l 0,6.375 c 0,0.9819 -0.79975,1.7813 -1.78125,1.7813 l -2.84375,0 c -0.9815,0 -1.75,-0.7996 -1.75,-1.7813 l 0,-6.375 c 0,-0.9808 0.7685,-1.75 1.75,-1.75 z m 16.84375,0 2.84375,0 c 0.9815,0 1.78125,0.7686 1.78125,1.75 l 0,6.375 c 0,0.9819 -0.79975,1.7813 -1.78125,1.7813 l -2.84375,0 c -0.9815,0 -1.78125,-0.7996 -1.78125,-1.7813 l 0,-6.375 c 0,-0.9807 0.79975,-1.75 1.78125,-1.75 z"
       style="fill:#000000;fill-rule:evenodd;stroke:none" />
    <text
       sodipodi:linespacing="125%"
       id="text3550"
       y="934.95178"
       x="64.941483"
       style="font-size:9px;font-style:normal;font-variant:normal;font-weight:normal;font-stretch:normal;line-height:125%;letter-spacing:0px;word-spacing:0px;fill:#ed9c00;fill-opacity:1;stroke:none;font-family:Monospace;-inkscape-font-specification:Monospace"
       xml:space="preserve"><tspan
         y="934.95178"
         x="64.941483"
         id="tspan3552"
         sodipodi:role="line">1</tspan></text>
    <text
       xml:space="preserve"
       style="font-size:9px;font-style:normal;font-variant:normal;font-weight:normal;font-stretch:normal;line-height:125%;letter-spacing:0px;word-spacing:0px;fill:#ed9c00;fill-opacity:1;stroke:none;font-family:Monospace;-inkscape-font-specification:Monospace"
       x="63.557953"
       y="1051.4449"
       id="text3554"
       sodipodi:linespacing="125%"><tspan
         sodipodi:role="line"
         id="tspan3556"
         x="63.557953"
         y="1051.4449">1</tspan></text>
  </g>
</svg>
